<svg version="1.1" viewBox="0.0 0.0 960.0 480.0" fill="none" stroke="none" stroke-linecap="square" stroke-miterlimit="10" xmlns:xlink="http://www.w3.org/1999/xlink" xmlns="http://www.w3.org/2000/svg"><clipPath id="p.0"><path d="m0 0l960.0 0l0 480.0l-960.0 0l0 -480.0z" clip-rule="nonzero"/></clipPath><g clip-path="url(#p.0)"><path fill="#000000" fill-opacity="0.0" d="m0 0l960.0 0l0 480.0l-960.0 0z" fill-rule="evenodd"/><path fill="#660000" d="m0 240.0l0 0c0 -132.54834 107.45166 -240.0 240.0 -240.0l480.0 0l0 0c63.651978 0 124.6969 25.285643 169.70563 70.29437c45.008728 45.008728 70.29437 106.053665 70.29437 169.70563l0 0l0 0c0 132.54834 -107.45166 240.0 -240.0 240.0l-480.0 0l0 0c-132.54834 0 -240.0 -107.45166 -240.0 -240.0z" fill-rule="evenodd"/><path stroke="#000000" stroke-width="1.0" stroke-linejoin="round" stroke-linecap="butt" d="m0 240.0l0 0c0 -132.54834 107.45166 -240.0 240.0 -240.0l480.0 0l0 0c63.651978 0 124.6969 25.285643 169.70563 70.29437c45.008728 45.008728 70.29437 106.053665 70.29437 169.70563l0 0l0 0c0 132.54834 -107.45166 240.0 -240.0 240.0l-480.0 0l0 0c-132.54834 0 -240.0 -107.45166 -240.0 -240.0z" fill-rule="evenodd"/><path fill="#38761d" d="m16.279726 239.98447l0 0c0 -122.49415 99.30113 -221.79527 221.79527 -221.79527l483.9685 0l0 0c58.82373 0 115.23822 23.36765 156.83295 64.962326c41.594666 41.59468 64.96234 98.009186 64.96234 156.83295l0 0l0 0c0 122.49414 -99.30115 221.79529 -221.79529 221.79529l-483.9685 0c-122.49414 0 -221.79527 -99.30115 -221.79527 -221.79529z" fill-rule="evenodd"/><path stroke="#6aa84f" stroke-width="1.0" stroke-linejoin="round" stroke-linecap="butt" d="m16.279726 239.98447l0 0c0 -122.49415 99.30113 -221.79527 221.79527 -221.79527l483.9685 0l0 0c58.82373 0 115.23822 23.36765 156.83295 64.962326c41.594666 41.59468 64.96234 98.009186 64.96234 156.83295l0 0l0 0c0 122.49414 -99.30115 221.79529 -221.79529 221.79529l-483.9685 0c-122.49414 0 -221.79527 -99.30115 -221.79527 -221.79529z" fill-rule="evenodd"/><path fill="#000000" fill-opacity="0.0" d="m339.42517 154.93855l281.25983 0l0 96.18898l-281.25983 0z" fill-rule="evenodd"/><path fill="#bdc9bd" d="m359.4595 187.6248l14.78125 0l0 4.84375l-14.78125 0l0 -4.84375zm0 -7.28125l14.78125 0l0 4.84375l-14.78125 0l0 -4.84375zm16.837402 7.28125l14.78125 0l0 4.84375l-14.78125 0l0 -4.84375zm0 -7.28125l14.78125 0l0 4.84375l-14.78125 0l0 -4.84375zm16.837372 7.28125l14.78125 0l0 4.84375l-14.78125 0l0 -4.84375zm0 -7.28125l14.78125 0l0 4.84375l-14.78125 0l0 -4.84375zm24.650421 -8.78125l11.84375 0q1.984375 0 3.640625 0.625q1.65625 0.609375 2.859375 1.671875q1.203125 1.046875 1.875 2.421875q0.6875 1.359375 0.6875 2.84375q0 1.796875 -0.53125 3.359375q-0.53125 1.5625 -1.65625 2.71875q-1.109375 1.15625 -2.828125 1.828125q-1.703125 0.65625 -4.046875 0.65625l-3.5625 0l0 4.890625l2.359375 0l0 4.640625l-10.640625 0l0 -4.640625l2.65625 0l0 -16.359375l-2.65625 0l0 -4.65625zm8.28125 4.65625l0 6.890625l2.3125 0q1.9375 0 3.0625 -0.8125q1.140625 -0.8125 1.140625 -2.578125q0 -1.640625 -1.078125 -2.5625q-1.0625 -0.9375 -3.125 -0.9375l-2.3125 0zm27.01892 21.453125q-1.734375 0 -3.328125 -0.46875q-1.59375 -0.46875 -2.96875 -1.328125q-1.375 -0.875 -2.5 -2.078125q-1.125 -1.21875 -1.921875 -2.6875q-0.796875 -1.484375 -1.25 -3.171875q-0.4375 -1.703125 -0.4375 -3.546875q0 -1.84375 0.4375 -3.546875q0.453125 -1.703125 1.25 -3.171875q0.796875 -1.484375 1.921875 -2.6875q1.125 -1.21875 2.5 -2.078125q1.375 -0.875 2.96875 -1.34375q1.59375 -0.46875 3.328125 -0.46875q1.75 0 3.34375 0.46875q1.609375 0.46875 2.984375 1.34375q1.375 0.859375 2.5 2.078125q1.125 1.203125 1.921875 2.6875q0.8125 1.46875 1.25 3.171875q0.4375 1.703125 0.4375 3.546875q0 1.828125 -0.4375 3.53125q-0.4375 1.703125 -1.25 3.1875q-0.796875 1.46875 -1.921875 2.6875q-1.125 1.203125 -2.5 2.078125q-1.375 0.859375 -2.984375 1.328125q-1.59375 0.46875 -3.34375 0.46875zm0 -5.3125q1.484375 0 2.703125 -0.625q1.234375 -0.640625 2.109375 -1.734375q0.875 -1.09375 1.359375 -2.53125q0.484375 -1.453125 0.484375 -3.078125q0 -1.640625 -0.5 -3.09375q-0.484375 -1.453125 -1.375 -2.546875q-0.890625 -1.09375 -2.109375 -1.71875q-1.21875 -0.640625 -2.671875 -0.640625q-1.453125 0 -2.671875 0.640625q-1.21875 0.625 -2.09375 1.71875q-0.875 1.09375 -1.375 2.546875q-0.5 1.453125 -0.5 3.09375q0 1.625 0.5 3.078125q0.5 1.4375 1.375 2.53125q0.875 1.09375 2.09375 1.734375q1.21875 0.625 2.671875 0.625zm15.80423 -20.796875l10.984375 0l0 4.65625l-2.703125 0l0 7.46875l8.203125 -7.171875l0 -4.953125l8.75 0l0 5.0l-1.90625 0l-8.546875 7.34375l8.1875 8.28125l2.078125 0l0 5.03125l-8.515625 0l0 -5.03125l-8.25 -8.25l0 8.640625l2.703125 0l0 4.640625l-10.984375 0l0 -4.640625l2.65625 0l0 -16.359375l-2.65625 0l0 -4.65625zm28.00592 0l20.40625 0l0 8.75l-5.515625 0l0 -3.640625l-6.578125 0l0 5.0625l5.09375 0l0 4.90625l-5.09375 0l0 5.9375l6.578125 0l0 -4.546875l5.515625 0l0 9.1875l-20.40625 0l0 -4.640625l2.703125 0l0 -15.90625l-2.703125 0l0 -5.109375zm23.352356 0l13.578125 0q1.984375 0 3.53125 0.59375q1.5625 0.59375 2.625 1.59375q1.0625 0.984375 1.625 2.296875q0.578125 1.3125 0.578125 2.734375q0 1.296875 -0.28125 2.28125q-0.28125 0.984375 -0.8125 1.75q-0.53125 0.75 -1.3125 1.34375q-0.78125 0.578125 -1.78125 1.046875q0.875 0.4375 1.53125 1.34375q0.65625 0.90625 1.0 2.34375l0.859375 3.34375l2.109375 0l0.046875 4.984375l-7.453125 0l-1.015625 -6.09375q-0.15625 -1.078125 -0.46875 -1.859375q-0.3125 -0.796875 -0.84375 -1.296875q-0.515625 -0.5 -1.265625 -0.734375q-0.75 -0.234375 -1.78125 -0.234375l-2.1875 0l0 5.578125l2.359375 0l0 4.640625l-10.640625 0l0 -4.640625l2.65625 0l0 -16.359375l-2.65625 0l0 -4.65625zm8.28125 4.65625l0 6.203125l3.359375 0q0.96875 0 1.734375 -0.171875q0.78125 -0.171875 1.328125 -0.546875q0.546875 -0.390625 0.84375 -0.96875q0.296875 -0.578125 0.296875 -1.375q0 -1.484375 -1.0625 -2.3125q-1.0625 -0.828125 -3.140625 -0.828125l-3.359375 0zm23.672424 11.40625l14.78125 0l0 4.84375l-14.78125 0l0 -4.84375zm0 -7.28125l14.78125 0l0 4.84375l-14.78125 0l0 -4.84375zm16.837402 7.28125l14.78125 0l0 4.84375l-14.78125 0l0 -4.84375zm0 -7.28125l14.78125 0l0 4.84375l-14.78125 0l0 -4.84375zm16.837402 7.28125l14.78125 0l0 4.84375l-14.78125 0l0 -4.84375zm0 -7.28125l14.78125 0l0 4.84375l-14.78125 0l0 -4.84375z" fill-rule="nonzero"/><path fill="#000000" fill-opacity="0.0" d="m837.7336 302.47833l0 0c-3.3235474 0 -6.0178223 -2.694275 -6.0178223 -6.0178223l0 -44.058838c0 -1.5960236 0.6340332 -3.1266785 1.7625732 -4.255249c1.1286011 -1.1285553 2.6592407 -1.7625732 4.255249 -1.7625732l65.72815 0c3.3235474 0 6.0178223 2.694275 6.0178223 6.0178223l0 44.058838c0 3.3235474 -2.694275 6.0178223 -6.0178223 6.0178223z" fill-rule="evenodd"/><path stroke="#bdc9bd" stroke-width="4.0" stroke-linejoin="round" stroke-linecap="butt" d="m837.7336 302.47833l0 0c-3.3235474 0 -6.0178223 -2.694275 -6.0178223 -6.0178223l0 -44.058838c0 -1.5960236 0.6340332 -3.1266785 1.7625732 -4.255249c1.1286011 -1.1285553 2.6592407 -1.7625732 4.255249 -1.7625732l65.72815 0c3.3235474 0 6.0178223 2.694275 6.0178223 6.0178223l0 44.058838c0 3.3235474 -2.694275 6.0178223 -6.0178223 6.0178223z" fill-rule="evenodd"/><path fill="#000000" fill-opacity="0.0" d="m837.7336 233.59576l0 0c-3.3235474 0 -6.0178223 -2.6942596 -6.0178223 -6.017807l0 -44.058853c0 -1.5960236 0.6340332 -3.1266785 1.7625732 -4.255249c1.1286011 -1.1285553 2.6592407 -1.7625732 4.255249 -1.7625732l65.72815 0c3.3235474 0 6.0178223 2.694275 6.0178223 6.0178223l0 44.058853c0 3.3235474 -2.694275 6.017807 -6.0178223 6.017807z" fill-rule="evenodd"/><path stroke="#bdc9bd" stroke-width="4.0" stroke-linejoin="round" stroke-linecap="butt" d="m837.7336 233.59576l0 0c-3.3235474 0 -6.0178223 -2.6942596 -6.0178223 -6.017807l0 -44.058853c0 -1.5960236 0.6340332 -3.1266785 1.7625732 -4.255249c1.1286011 -1.1285553 2.6592407 -1.7625732 4.255249 -1.7625732l65.72815 0c3.3235474 0 6.0178223 2.694275 6.0178223 6.0178223l0 44.058853c0 3.3235474 -2.694275 6.017807 -6.0178223 6.017807z" fill-rule="evenodd"/><path fill="#000000" fill-opacity="0.0" d="m57.503666 302.47678l0 0c-3.3235474 0 -6.0178146 -2.694275 -6.0178146 -6.0178223l0 -44.058853c0 -1.5960236 0.63401794 -3.1266785 1.762577 -4.255234c1.1285591 -1.1285706 2.659214 -1.7625885 4.2552376 -1.7625885l65.72815 0c3.3235474 0 6.0178223 2.694275 6.0178223 6.0178223l0 44.058853c0 3.3235474 -2.694275 6.0178223 -6.0178223 6.0178223z" fill-rule="evenodd"/><path stroke="#bdc9bd" stroke-width="4.0" stroke-linejoin="round" stroke-linecap="butt" d="m57.503666 302.47678l0 0c-3.3235474 0 -6.0178146 -2.694275 -6.0178146 -6.0178223l0 -44.058853c0 -1.5960236 0.63401794 -3.1266785 1.762577 -4.255234c1.1285591 -1.1285706 2.659214 -1.7625885 4.2552376 -1.7625885l65.72815 0c3.3235474 0 6.0178223 2.694275 6.0178223 6.0178223l0 44.058853c0 3.3235474 -2.694275 6.0178223 -6.0178223 6.0178223z" fill-rule="evenodd"/><path fill="#000000" fill-opacity="0.0" d="m57.503666 233.59421l0 0c-3.3235474 0 -6.0178146 -2.694275 -6.0178146 -6.0178223l0 -44.058853c0 -1.5960236 0.63401794 -3.1266785 1.762577 -4.255234c1.1285591 -1.1285706 2.659214 -1.7625885 4.2552376 -1.7625885l65.72815 0c3.3235474 0 6.0178223 2.694275 6.0178223 6.0178223l0 44.058853c0 3.3235474 -2.694275 6.0178223 -6.0178223 6.0178223z" fill-rule="evenodd"/><path stroke="#bdc9bd" stroke-width="4.0" stroke-linejoin="round" stroke-linecap="butt" d="m57.503666 233.59421l0 0c-3.3235474 0 -6.0178146 -2.694275 -6.0178146 -6.0178223l0 -44.058853c0 -1.5960236 0.63401794 -3.1266785 1.762577 -4.255234c1.1285591 -1.1285706 2.659214 -1.7625885 4.2552376 -1.7625885l65.72815 0c3.3235474 0 6.0178223 2.694275 6.0178223 6.0178223l0 44.058853c0 3.3235474 -2.694275 6.0178223 -6.0178223 6.0178223z" fill-rule="evenodd"/><path fill="#000000" fill-opacity="0.0" d="m768.953 106.2414l0 0c0 3.3235474 -2.694275 6.0178146 -6.0178223 6.0178146l-44.058838 0c-1.5960083 0 -3.126709 -0.63401794 -4.255249 -1.7625732c-1.12854 -1.1285629 -1.7625732 -2.6592178 -1.7625732 -4.2552414l0 -65.72815c0 -3.3235474 2.694275 -6.0178146 6.0178223 -6.0178146l44.058838 0c3.3235474 0 6.0178223 2.6942673 6.0178223 6.0178146z" fill-rule="evenodd"/><path stroke="#bdc9bd" stroke-width="4.0" stroke-linejoin="round" stroke-linecap="butt" d="m768.953 106.2414l0 0c0 3.3235474 -2.694275 6.0178146 -6.0178223 6.0178146l-44.058838 0c-1.5960083 0 -3.126709 -0.63401794 -4.255249 -1.7625732c-1.12854 -1.1285629 -1.7625732 -2.6592178 -1.7625732 -4.2552414l0 -65.72815c0 -3.3235474 2.694275 -6.0178146 6.0178223 -6.0178146l44.058838 0c3.3235474 0 6.0178223 2.6942673 6.0178223 6.0178146z" fill-rule="evenodd"/><path fill="#000000" fill-opacity="0.0" d="m700.07 106.2414l0 0c0 3.3235474 -2.694275 6.0178146 -6.0178223 6.0178146l-44.058838 0c-1.5960083 0 -3.126709 -0.63401794 -4.255249 -1.7625732c-1.12854 -1.1285629 -1.7625732 -2.6592178 -1.7625732 -4.2552414l0 -65.72815c0 -3.3235474 2.694275 -6.0178146 6.0178223 -6.0178146l44.058838 0c3.3235474 0 6.0178223 2.6942673 6.0178223 6.0178146z" fill-rule="evenodd"/><path stroke="#bdc9bd" stroke-width="4.0" stroke-linejoin="round" stroke-linecap="butt" d="m700.07 106.2414l0 0c0 3.3235474 -2.694275 6.0178146 -6.0178223 6.0178146l-44.058838 0c-1.5960083 0 -3.126709 -0.63401794 -4.255249 -1.7625732c-1.12854 -1.1285629 -1.7625732 -2.6592178 -1.7625732 -4.2552414l0 -65.72815c0 -3.3235474 2.694275 -6.0178146 6.0178223 -6.0178146l44.058838 0c3.3235474 0 6.0178223 2.6942673 6.0178223 6.0178146z" fill-rule="evenodd"/><path fill="#000000" fill-opacity="0.0" d="m542.4711 106.2414l0 0c0 3.3235474 -2.694275 6.0178146 -6.0178223 6.0178146l-44.058838 0c-1.5960388 0 -3.1266785 -0.63401794 -4.255249 -1.7625732c-1.1285706 -1.1285629 -1.7625732 -2.6592178 -1.7625732 -4.2552414l0 -65.72815c0 -3.3235474 2.694275 -6.0178146 6.0178223 -6.0178146l44.058838 0c3.3235474 0 6.0178223 2.6942673 6.0178223 6.0178146z" fill-rule="evenodd"/><path stroke="#bdc9bd" stroke-width="4.0" stroke-linejoin="round" stroke-linecap="butt" d="m542.4711 106.2414l0 0c0 3.3235474 -2.694275 6.0178146 -6.0178223 6.0178146l-44.058838 0c-1.5960388 0 -3.1266785 -0.63401794 -4.255249 -1.7625732c-1.1285706 -1.1285629 -1.7625732 -2.6592178 -1.7625732 -4.2552414l0 -65.72815c0 -3.3235474 2.694275 -6.0178146 6.0178223 -6.0178146l44.058838 0c3.3235474 0 6.0178223 2.6942673 6.0178223 6.0178146z" fill-rule="evenodd"/><path fill="#000000" fill-opacity="0.0" d="m473.58813 106.2414l0 0c0 3.3235474 -2.694275 6.0178146 -6.0178223 6.0178146l-44.058838 0c-1.5960388 0 -3.1266785 -0.63401794 -4.255249 -1.7625732c-1.1285706 -1.1285629 -1.7625732 -2.6592178 -1.7625732 -4.2552414l0 -65.72815c0 -3.3235474 2.694275 -6.0178146 6.0178223 -6.0178146l44.058838 0c3.3235474 0 6.0178223 2.6942673 6.0178223 6.0178146z" fill-rule="evenodd"/><path stroke="#bdc9bd" stroke-width="4.0" stroke-linejoin="round" stroke-linecap="butt" d="m473.58813 106.2414l0 0c0 3.3235474 -2.694275 6.0178146 -6.0178223 6.0178146l-44.058838 0c-1.5960388 0 -3.1266785 -0.63401794 -4.255249 -1.7625732c-1.1285706 -1.1285629 -1.7625732 -2.6592178 -1.7625732 -4.2552414l0 -65.72815c0 -3.3235474 2.694275 -6.0178146 6.0178223 -6.0178146l44.058838 0c3.3235474 0 6.0178223 2.6942673 6.0178223 6.0178146z" fill-rule="evenodd"/><path fill="#000000" fill-opacity="0.0" d="m315.98926 106.2414l0 0c0 3.3235474 -2.694275 6.0178146 -6.0178223 6.0178146l-44.05887 0c-1.5960083 0 -3.1266785 -0.63401794 -4.2552185 -1.7625732c-1.1285706 -1.1285629 -1.7625732 -2.6592178 -1.7625732 -4.2552414l0 -65.72815c0 -3.3235474 2.6942444 -6.0178146 6.0177917 -6.0178146l44.05887 0c3.3235474 0 6.0178223 2.6942673 6.0178223 6.0178146z" fill-rule="evenodd"/><path stroke="#bdc9bd" stroke-width="4.0" stroke-linejoin="round" stroke-linecap="butt" d="m315.98926 106.2414l0 0c0 3.3235474 -2.694275 6.0178146 -6.0178223 6.0178146l-44.05887 0c-1.5960083 0 -3.1266785 -0.63401794 -4.2552185 -1.7625732c-1.1285706 -1.1285629 -1.7625732 -2.6592178 -1.7625732 -4.2552414l0 -65.72815c0 -3.3235474 2.6942444 -6.0178146 6.0177917 -6.0178146l44.05887 0c3.3235474 0 6.0178223 2.6942673 6.0178223 6.0178146z" fill-rule="evenodd"/><path fill="#000000" fill-opacity="0.0" d="m247.10626 106.2414l0 0c0 3.3235474 -2.694275 6.0178146 -6.0178223 6.0178146l-44.058853 0c-1.5960236 0 -3.1266785 -0.63401794 -4.255234 -1.7625732c-1.1285706 -1.1285629 -1.7625885 -2.6592178 -1.7625885 -4.2552414l0 -65.72815c0 -3.3235474 2.694275 -6.0178146 6.0178223 -6.0178146l44.058853 0c3.3235474 0 6.0178223 2.6942673 6.0178223 6.0178146z" fill-rule="evenodd"/><path stroke="#bdc9bd" stroke-width="4.0" stroke-linejoin="round" stroke-linecap="butt" d="m247.10626 106.2414l0 0c0 3.3235474 -2.694275 6.0178146 -6.0178223 6.0178146l-44.058853 0c-1.5960236 0 -3.1266785 -0.63401794 -4.255234 -1.7625732c-1.1285706 -1.1285629 -1.7625885 -2.6592178 -1.7625885 -4.2552414l0 -65.72815c0 -3.3235474 2.694275 -6.0178146 6.0178223 -6.0178146l44.058853 0c3.3235474 0 6.0178223 2.6942673 6.0178223 6.0178146z" fill-rule="evenodd"/><path fill="#000000" fill-opacity="0.0" d="m768.953 439.1407l0 0c0 3.3235474 -2.694275 6.0177917 -6.0178223 6.0177917l-44.058838 0c-1.5960083 0 -3.126709 -0.6340027 -4.255249 -1.7625732c-1.12854 -1.12854 -1.7625732 -2.6592102 -1.7625732 -4.2552185l0 -65.72815c0 -3.3235474 2.694275 -6.0178223 6.0178223 -6.0178223l44.058838 0c3.3235474 0 6.0178223 2.694275 6.0178223 6.0178223z" fill-rule="evenodd"/><path stroke="#bdc9bd" stroke-width="4.0" stroke-linejoin="round" stroke-linecap="butt" d="m768.953 439.1407l0 0c0 3.3235474 -2.694275 6.0177917 -6.0178223 6.0177917l-44.058838 0c-1.5960083 0 -3.126709 -0.6340027 -4.255249 -1.7625732c-1.12854 -1.12854 -1.7625732 -2.6592102 -1.7625732 -4.2552185l0 -65.72815c0 -3.3235474 2.694275 -6.0178223 6.0178223 -6.0178223l44.058838 0c3.3235474 0 6.0178223 2.694275 6.0178223 6.0178223z" fill-rule="evenodd"/><path fill="#000000" fill-opacity="0.0" d="m700.07 439.1407l0 0c0 3.3235474 -2.694275 6.0177917 -6.0178223 6.0177917l-44.058838 0c-1.5960083 0 -3.126709 -0.6340027 -4.255249 -1.7625732c-1.12854 -1.12854 -1.7625732 -2.6592102 -1.7625732 -4.2552185l0 -65.72815c0 -3.3235474 2.694275 -6.0178223 6.0178223 -6.0178223l44.058838 0c3.3235474 0 6.0178223 2.694275 6.0178223 6.0178223z" fill-rule="evenodd"/><path stroke="#bdc9bd" stroke-width="4.0" stroke-linejoin="round" stroke-linecap="butt" d="m700.07 439.1407l0 0c0 3.3235474 -2.694275 6.0177917 -6.0178223 6.0177917l-44.058838 0c-1.5960083 0 -3.126709 -0.6340027 -4.255249 -1.7625732c-1.12854 -1.12854 -1.7625732 -2.6592102 -1.7625732 -4.2552185l0 -65.72815c0 -3.3235474 2.694275 -6.0178223 6.0178223 -6.0178223l44.058838 0c3.3235474 0 6.0178223 2.694275 6.0178223 6.0178223z" fill-rule="evenodd"/><path fill="#000000" fill-opacity="0.0" d="m542.4711 439.1407l0 0c0 3.3235474 -2.694275 6.0177917 -6.0178223 6.0177917l-44.058838 0c-1.5960388 0 -3.1266785 -0.6340027 -4.255249 -1.7625732c-1.1285706 -1.12854 -1.7625732 -2.6592102 -1.7625732 -4.2552185l0 -65.72815c0 -3.3235474 2.694275 -6.0178223 6.0178223 -6.0178223l44.058838 0c3.3235474 0 6.0178223 2.694275 6.0178223 6.0178223z" fill-rule="evenodd"/><path stroke="#bdc9bd" stroke-width="4.0" stroke-linejoin="round" stroke-linecap="butt" d="m542.4711 439.1407l0 0c0 3.3235474 -2.694275 6.0177917 -6.0178223 6.0177917l-44.058838 0c-1.5960388 0 -3.1266785 -0.6340027 -4.255249 -1.7625732c-1.1285706 -1.12854 -1.7625732 -2.6592102 -1.7625732 -4.2552185l0 -65.72815c0 -3.3235474 2.694275 -6.0178223 6.0178223 -6.0178223l44.058838 0c3.3235474 0 6.0178223 2.694275 6.0178223 6.0178223z" fill-rule="evenodd"/><path fill="#000000" fill-opacity="0.0" d="m473.58813 439.1407l0 0c0 3.3235474 -2.694275 6.0177917 -6.0178223 6.0177917l-44.058838 0c-1.5960388 0 -3.1266785 -0.6340027 -4.255249 -1.7625732c-1.1285706 -1.12854 -1.7625732 -2.6592102 -1.7625732 -4.2552185l0 -65.72815c0 -3.3235474 2.694275 -6.0178223 6.0178223 -6.0178223l44.058838 0c3.3235474 0 6.0178223 2.694275 6.0178223 6.0178223z" fill-rule="evenodd"/><path stroke="#bdc9bd" stroke-width="4.0" stroke-linejoin="round" stroke-linecap="butt" d="m473.58813 439.1407l0 0c0 3.3235474 -2.694275 6.0177917 -6.0178223 6.0177917l-44.058838 0c-1.5960388 0 -3.1266785 -0.6340027 -4.255249 -1.7625732c-1.1285706 -1.12854 -1.7625732 -2.6592102 -1.7625732 -4.2552185l0 -65.72815c0 -3.3235474 2.694275 -6.0178223 6.0178223 -6.0178223l44.058838 0c3.3235474 0 6.0178223 2.694275 6.0178223 6.0178223z" fill-rule="evenodd"/><path fill="#000000" fill-opacity="0.0" d="m315.98926 439.1407l0 0c0 3.3235474 -2.694275 6.0177917 -6.0178223 6.0177917l-44.05887 0c-1.5960083 0 -3.1266785 -0.6340027 -4.2552185 -1.7625732c-1.1285706 -1.12854 -1.7625732 -2.6592102 -1.7625732 -4.2552185l0 -65.72815c0 -3.3235474 2.6942444 -6.0178223 6.0177917 -6.0178223l44.05887 0c3.3235474 0 6.0178223 2.694275 6.0178223 6.0178223z" fill-rule="evenodd"/><path stroke="#bdc9bd" stroke-width="4.0" stroke-linejoin="round" stroke-linecap="butt" d="m315.98926 439.1407l0 0c0 3.3235474 -2.694275 6.0177917 -6.0178223 6.0177917l-44.05887 0c-1.5960083 0 -3.1266785 -0.6340027 -4.2552185 -1.7625732c-1.1285706 -1.12854 -1.7625732 -2.6592102 -1.7625732 -4.2552185l0 -65.72815c0 -3.3235474 2.6942444 -6.0178223 6.0177917 -6.0178223l44.05887 0c3.3235474 0 6.0178223 2.694275 6.0178223 6.0178223z" fill-rule="evenodd"/><path fill="#000000" fill-opacity="0.0" d="m247.10626 439.1407l0 0c0 3.3235474 -2.694275 6.0177917 -6.0178223 6.0177917l-44.058853 0c-1.5960236 0 -3.1266785 -0.6340027 -4.255234 -1.7625732c-1.1285706 -1.12854 -1.7625885 -2.6592102 -1.7625885 -4.2552185l0 -65.72815c0 -3.3235474 2.694275 -6.0178223 6.0178223 -6.0178223l44.058853 0c3.3235474 0 6.0178223 2.694275 6.0178223 6.0178223z" fill-rule="evenodd"/><path stroke="#bdc9bd" stroke-width="4.0" stroke-linejoin="round" stroke-linecap="butt" d="m247.10626 439.1407l0 0c0 3.3235474 -2.694275 6.0177917 -6.0178223 6.0177917l-44.058853 0c-1.5960236 0 -3.1266785 -0.6340027 -4.255234 -1.7625732c-1.1285706 -1.12854 -1.7625885 -2.6592102 -1.7625885 -4.2552185l0 -65.72815c0 -3.3235474 2.694275 -6.0178223 6.0178223 -6.0178223l44.058853 0c3.3235474 0 6.0178223 2.694275 6.0178223 6.0178223z" fill-rule="evenodd"/><path fill="#000000" fill-opacity="0.0" d="m439.64877 296.4598l0 0c0 3.3235474 -2.694275 6.0178223 -6.0178223 6.0178223l-44.058838 0c-1.5960388 0 -3.1266785 -0.6340332 -4.255249 -1.7625732c-1.1285706 -1.1285706 -1.7625732 -2.6592102 -1.7625732 -4.255249l0 -65.72815c0 -3.3235474 2.694275 -6.017807 6.0178223 -6.017807l44.058838 0c3.3235474 0 6.0178223 2.6942596 6.0178223 6.017807z" fill-rule="evenodd"/><path stroke="#bdc9bd" stroke-width="4.0" stroke-linejoin="round" stroke-linecap="butt" d="m439.64877 296.4598l0 0c0 3.3235474 -2.694275 6.0178223 -6.0178223 6.0178223l-44.058838 0c-1.5960388 0 -3.1266785 -0.6340332 -4.255249 -1.7625732c-1.1285706 -1.1285706 -1.7625732 -2.6592102 -1.7625732 -4.255249l0 -65.72815c0 -3.3235474 2.694275 -6.017807 6.0178223 -6.017807l44.058838 0c3.3235474 0 6.0178223 2.6942596 6.0178223 6.017807z" fill-rule="evenodd"/><path fill="#000000" fill-opacity="0.0" d="m370.76578 296.4598l0 0c0 3.3235474 -2.694275 6.0178223 -6.0178223 6.0178223l-44.058838 0c-1.5960388 0 -3.1266785 -0.6340332 -4.255249 -1.7625732c-1.1285706 -1.1285706 -1.7625732 -2.6592102 -1.7625732 -4.255249l0 -65.72815c0 -3.3235474 2.694275 -6.017807 6.0178223 -6.017807l44.058838 0c3.3235474 0 6.0178223 2.6942596 6.0178223 6.017807z" fill-rule="evenodd"/><path stroke="#bdc9bd" stroke-width="4.0" stroke-linejoin="round" stroke-linecap="butt" d="m370.76578 296.4598l0 0c0 3.3235474 -2.694275 6.0178223 -6.0178223 6.0178223l-44.058838 0c-1.5960388 0 -3.1266785 -0.6340332 -4.255249 -1.7625732c-1.1285706 -1.1285706 -1.7625732 -2.6592102 -1.7625732 -4.255249l0 -65.72815c0 -3.3235474 2.694275 -6.017807 6.0178223 -6.017807l44.058838 0c3.3235474 0 6.0178223 2.6942596 6.0178223 6.017807z" fill-rule="evenodd"/><path fill="#000000" fill-opacity="0.0" d="m646.29346 296.4598l0 0c0 3.3235474 -2.694275 6.0178223 -6.0178223 6.0178223l-44.058838 0c-1.5960083 0 -3.126648 -0.6340332 -4.255249 -1.7625732c-1.12854 -1.1285706 -1.7625732 -2.6592102 -1.7625732 -4.255249l0 -65.72815c0 -3.3235474 2.694275 -6.017807 6.0178223 -6.017807l44.058838 0c3.3235474 0 6.0178223 2.6942596 6.0178223 6.017807z" fill-rule="evenodd"/><path stroke="#bdc9bd" stroke-width="4.0" stroke-linejoin="round" stroke-linecap="butt" d="m646.29346 296.4598l0 0c0 3.3235474 -2.694275 6.0178223 -6.0178223 6.0178223l-44.058838 0c-1.5960083 0 -3.126648 -0.6340332 -4.255249 -1.7625732c-1.12854 -1.1285706 -1.7625732 -2.6592102 -1.7625732 -4.255249l0 -65.72815c0 -3.3235474 2.694275 -6.017807 6.0178223 -6.017807l44.058838 0c3.3235474 0 6.0178223 2.6942596 6.0178223 6.017807z" fill-rule="evenodd"/><path fill="#000000" fill-opacity="0.0" d="m577.4119 296.4598l0 0c0 3.3235474 -2.694275 6.0178223 -6.0178223 6.0178223l-44.058838 0c-1.5960693 0 -3.126709 -0.6340332 -4.255249 -1.7625732c-1.1286011 -1.1285706 -1.7625732 -2.6592102 -1.7625732 -4.255249l0 -65.72815c0 -3.3235474 2.694275 -6.017807 6.0178223 -6.017807l44.058838 0c3.3235474 0 6.0178223 2.6942596 6.0178223 6.017807z" fill-rule="evenodd"/><path stroke="#bdc9bd" stroke-width="4.0" stroke-linejoin="round" stroke-linecap="butt" d="m577.4119 296.4598l0 0c0 3.3235474 -2.694275 6.0178223 -6.0178223 6.0178223l-44.058838 0c-1.5960693 0 -3.126709 -0.6340332 -4.255249 -1.7625732c-1.1286011 -1.1285706 -1.7625732 -2.6592102 -1.7625732 -4.255249l0 -65.72815c0 -3.3235474 2.694275 -6.017807 6.0178223 -6.017807l44.058838 0c3.3235474 0 6.0178223 2.6942596 6.0178223 6.017807z" fill-rule="evenodd"/><path fill="#000000" fill-opacity="0.0" d="m508.52893 296.4598l0 0c0 3.3235474 -2.694275 6.0178223 -6.0178223 6.0178223l-44.05887 0c-1.5960083 0 -3.1266785 -0.6340332 -4.255249 -1.7625732c-1.12854 -1.1285706 -1.7625732 -2.6592102 -1.7625732 -4.255249l0 -65.72815c0 -3.3235474 2.694275 -6.017807 6.0178223 -6.017807l44.05887 0c3.3235474 0 6.0178223 2.6942596 6.0178223 6.017807z" fill-rule="evenodd"/><path stroke="#bdc9bd" stroke-width="4.0" stroke-linejoin="round" stroke-linecap="butt" d="m508.52893 296.4598l0 0c0 3.3235474 -2.694275 6.0178223 -6.0178223 6.0178223l-44.05887 0c-1.5960083 0 -3.1266785 -0.6340332 -4.255249 -1.7625732c-1.12854 -1.1285706 -1.7625732 -2.6592102 -1.7625732 -4.255249l0 -65.72815c0 -3.3235474 2.694275 -6.017807 6.0178223 -6.017807l44.05887 0c3.3235474 0 6.0178223 2.6942596 6.0178223 6.017807z" fill-rule="evenodd"/></g></svg>